<?xml version="1.0" encoding="UTF-8" standalone="no"?>
<!DOCTYPE svg PUBLIC "-//W3C//DTD SVG 1.1//EN"
 "http://www.w3.org/Graphics/SVG/1.1/DTD/svg11.dtd">
<!-- Generated by graphviz version 2.43.0 (0)
 -->
<!-- Title: %3 Pages: 1 -->
<svg width="975pt" height="430pt"
 viewBox="0.00 0.00 974.60 429.60" xmlns="http://www.w3.org/2000/svg" xmlns:xlink="http://www.w3.org/1999/xlink">
<g id="graph0" class="graph" transform="scale(1 1) rotate(0) translate(28.8 400.8)">
<title>%3</title>
<polygon fill="white" stroke="transparent" points="-28.8,28.8 -28.8,-400.8 945.8,-400.8 945.8,28.8 -28.8,28.8"/>
<text text-anchor="middle" x="458.5" y="-339.2" font-family="Helvetica,sans-Serif" font-size="36.00">orcapod</text>
<!-- orcapod -->
<g id="node1" class="node">
<title>orcapod</title>
<polygon fill="#5397c8" stroke="black" points="0,-112.5 0,-150.5 59,-150.5 59,-112.5 0,-112.5"/>
<text text-anchor="middle" x="29.5" y="-138.5" font-family="monospace" font-size="10.00">crate</text>
<polyline fill="none" stroke="black" points="0,-131.5 59,-131.5 "/>
<text text-anchor="middle" x="29.5" y="-119.5" font-family="monospace" font-size="10.00">orcapod</text>
</g>
<!-- orcapod::model -->
<g id="node2" class="node">
<title>orcapod::model</title>
<polygon fill="#81c169" stroke="black" points="141,-172.5 141,-210.5 242,-210.5 242,-172.5 141,-172.5"/>
<text text-anchor="middle" x="191.5" y="-198.5" font-family="monospace" font-size="10.00">pub mod</text>
<polyline fill="none" stroke="black" points="141,-191.5 242,-191.5 "/>
<text text-anchor="middle" x="191.5" y="-179.5" font-family="monospace" font-size="10.00">orcapod::model</text>
</g>
<!-- orcapod&#45;&gt;orcapod::model -->
<g id="edge1" class="edge">
<title>orcapod&#45;&gt;orcapod::model</title>
<path fill="none" stroke="#000000" d="M59.1,-142.23C79.1,-149.73 106.53,-160.01 131.15,-169.24"/>
<polygon fill="#000000" stroke="#000000" points="130.19,-172.62 140.79,-172.86 132.65,-166.07 130.19,-172.62"/>
<text text-anchor="middle" x="89.5" y="-160.5" font-family="monospace" font-size="10.00">owns</text>
</g>
<!-- orcapod::orchestrator -->
<g id="node6" class="node">
<title>orcapod::orchestrator</title>
<polygon fill="#81c169" stroke="black" points="120,-112.5 120,-150.5 263,-150.5 263,-112.5 120,-112.5"/>
<text text-anchor="middle" x="191.5" y="-138.5" font-family="monospace" font-size="10.00">pub mod</text>
<polyline fill="none" stroke="black" points="120,-131.5 263,-131.5 "/>
<text text-anchor="middle" x="191.5" y="-119.5" font-family="monospace" font-size="10.00">orcapod::orchestrator</text>
</g>
<!-- orcapod&#45;&gt;orcapod::orchestrator -->
<g id="edge2" class="edge">
<title>orcapod&#45;&gt;orcapod::orchestrator</title>
<path fill="none" stroke="#000000" d="M59.1,-131.5C73.44,-131.5 91.59,-131.5 109.79,-131.5"/>
<polygon fill="#000000" stroke="#000000" points="109.88,-135 119.88,-131.5 109.88,-128 109.88,-135"/>
<text text-anchor="middle" x="89.5" y="-134.5" font-family="monospace" font-size="10.00">owns</text>
</g>
<!-- orcapod::store -->
<g id="node10" class="node">
<title>orcapod::store</title>
<polygon fill="#81c169" stroke="black" points="141,-50.5 141,-88.5 242,-88.5 242,-50.5 141,-50.5"/>
<text text-anchor="middle" x="191.5" y="-76.5" font-family="monospace" font-size="10.00">pub mod</text>
<polyline fill="none" stroke="black" points="141,-69.5 242,-69.5 "/>
<text text-anchor="middle" x="191.5" y="-57.5" font-family="monospace" font-size="10.00">orcapod::store</text>
</g>
<!-- orcapod&#45;&gt;orcapod::store -->
<g id="edge3" class="edge">
<title>orcapod&#45;&gt;orcapod::store</title>
<path fill="none" stroke="#000000" d="M59.1,-120.42C79.35,-112.57 107.21,-101.78 132.07,-92.14"/>
<polygon fill="#000000" stroke="#000000" points="133.36,-95.39 141.42,-88.52 130.84,-88.87 133.36,-95.39"/>
<text text-anchor="middle" x="89.5" y="-115.5" font-family="monospace" font-size="10.00">owns</text>
</g>
<!-- orcapod::model::Pod -->
<g id="node3" class="node">
<title>orcapod::model::Pod</title>
<polygon fill="#81c169" stroke="black" points="354,-285.5 354,-323.5 485,-323.5 485,-285.5 354,-285.5"/>
<text text-anchor="middle" x="419.5" y="-311.5" font-family="monospace" font-size="10.00">pub struct</text>
<polyline fill="none" stroke="black" points="354,-304.5 485,-304.5 "/>
<text text-anchor="middle" x="419.5" y="-292.5" font-family="monospace" font-size="10.00">orcapod::model::Pod</text>
</g>
<!-- orcapod::model&#45;&gt;orcapod::model::Pod -->
<g id="edge4" class="edge">
<title>orcapod::model&#45;&gt;orcapod::model::Pod</title>
<path fill="none" stroke="#000000" d="M230.58,-210.54C269.29,-229.9 329.35,-259.93 371.12,-280.81"/>
<polygon fill="#000000" stroke="#000000" points="369.75,-284.04 380.26,-285.38 372.88,-277.78 369.75,-284.04"/>
<text text-anchor="middle" x="293.5" y="-266.5" font-family="monospace" font-size="10.00">owns</text>
</g>
<!-- orcapod::model::PodJob -->
<g id="node4" class="node">
<title>orcapod::model::PodJob</title>
<polygon fill="#81c169" stroke="black" points="345,-228.5 345,-266.5 494,-266.5 494,-228.5 345,-228.5"/>
<text text-anchor="middle" x="419.5" y="-254.5" font-family="monospace" font-size="10.00">pub struct</text>
<polyline fill="none" stroke="black" points="345,-247.5 494,-247.5 "/>
<text text-anchor="middle" x="419.5" y="-235.5" font-family="monospace" font-size="10.00">orcapod::model::PodJob</text>
</g>
<!-- orcapod::model&#45;&gt;orcapod::model::PodJob -->
<g id="edge5" class="edge">
<title>orcapod::model&#45;&gt;orcapod::model::PodJob</title>
<path fill="none" stroke="#000000" d="M242.1,-203.79C269.3,-210.53 303.75,-219.07 334.97,-226.8"/>
<polygon fill="#000000" stroke="#000000" points="334.43,-230.27 344.98,-229.28 336.11,-223.48 334.43,-230.27"/>
<text text-anchor="middle" x="293.5" y="-222.5" font-family="monospace" font-size="10.00">owns</text>
</g>
<!-- orcapod::model::PodResult -->
<g id="node5" class="node">
<title>orcapod::model::PodResult</title>
<polygon fill="#81c169" stroke="black" points="336,-171.5 336,-209.5 503,-209.5 503,-171.5 336,-171.5"/>
<text text-anchor="middle" x="419.5" y="-197.5" font-family="monospace" font-size="10.00">pub struct</text>
<polyline fill="none" stroke="black" points="336,-190.5 503,-190.5 "/>
<text text-anchor="middle" x="419.5" y="-178.5" font-family="monospace" font-size="10.00">orcapod::model::PodResult</text>
</g>
<!-- orcapod::model&#45;&gt;orcapod::model::PodResult -->
<g id="edge6" class="edge">
<title>orcapod::model&#45;&gt;orcapod::model::PodResult</title>
<path fill="none" stroke="#000000" d="M242.1,-191.28C266.62,-191.17 297.04,-191.04 325.67,-190.91"/>
<polygon fill="#000000" stroke="#000000" points="325.72,-194.41 335.71,-190.87 325.69,-187.41 325.72,-194.41"/>
<text text-anchor="middle" x="293.5" y="-193.5" font-family="monospace" font-size="10.00">owns</text>
</g>
<!-- orcapod::orchestrator::PodRun -->
<g id="node7" class="node">
<title>orcapod::orchestrator::PodRun</title>
<polygon fill="#81c169" stroke="black" points="324,-114.5 324,-152.5 515,-152.5 515,-114.5 324,-114.5"/>
<text text-anchor="middle" x="419.5" y="-140.5" font-family="monospace" font-size="10.00">pub struct</text>
<polyline fill="none" stroke="black" points="324,-133.5 515,-133.5 "/>
<text text-anchor="middle" x="419.5" y="-121.5" font-family="monospace" font-size="10.00">orcapod::orchestrator::PodRun</text>
</g>
<!-- orcapod::orchestrator&#45;&gt;orcapod::orchestrator::PodRun -->
<g id="edge7" class="edge">
<title>orcapod::orchestrator&#45;&gt;orcapod::orchestrator::PodRun</title>
<path fill="none" stroke="#000000" d="M263.08,-132.12C279.1,-132.27 296.46,-132.42 313.56,-132.57"/>
<polygon fill="#000000" stroke="#000000" points="313.56,-136.07 323.59,-132.66 313.63,-129.07 313.56,-136.07"/>
<text text-anchor="middle" x="293.5" y="-135.5" font-family="monospace" font-size="10.00">owns</text>
</g>
<!-- orcapod::orchestrator::docker -->
<g id="node8" class="node">
<title>orcapod::orchestrator::docker</title>
<polygon fill="#81c169" stroke="black" points="324,-57.5 324,-95.5 515,-95.5 515,-57.5 324,-57.5"/>
<text text-anchor="middle" x="419.5" y="-83.5" font-family="monospace" font-size="10.00">pub mod</text>
<polyline fill="none" stroke="black" points="324,-76.5 515,-76.5 "/>
<text text-anchor="middle" x="419.5" y="-64.5" font-family="monospace" font-size="10.00">orcapod::orchestrator::docker</text>
</g>
<!-- orcapod::orchestrator&#45;&gt;orcapod::orchestrator::docker -->
<g id="edge8" class="edge">
<title>orcapod::orchestrator&#45;&gt;orcapod::orchestrator::docker</title>
<path fill="none" stroke="#000000" d="M263.08,-114.32C284.4,-109.13 308.08,-103.37 330.4,-97.94"/>
<polygon fill="#000000" stroke="#000000" points="331.31,-101.32 340.2,-95.55 329.66,-94.52 331.31,-101.32"/>
<text text-anchor="middle" x="293.5" y="-111.5" font-family="monospace" font-size="10.00">owns</text>
</g>
<!-- orcapod::orchestrator::docker::LocalDockerOrchestrator -->
<g id="node9" class="node">
<title>orcapod::orchestrator::docker::LocalDockerOrchestrator</title>
<polygon fill="#81c169" stroke="black" points="576,-57.5 576,-95.5 917,-95.5 917,-57.5 576,-57.5"/>
<text text-anchor="middle" x="746.5" y="-83.5" font-family="monospace" font-size="10.00">pub struct</text>
<polyline fill="none" stroke="black" points="576,-76.5 917,-76.5 "/>
<text text-anchor="middle" x="746.5" y="-64.5" font-family="monospace" font-size="10.00">orcapod::orchestrator::docker::LocalDockerOrchestrator</text>
</g>
<!-- orcapod::orchestrator::docker&#45;&gt;orcapod::orchestrator::docker::LocalDockerOrchestrator -->
<g id="edge9" class="edge">
<title>orcapod::orchestrator::docker&#45;&gt;orcapod::orchestrator::docker::LocalDockerOrchestrator</title>
<path fill="none" stroke="#000000" d="M515.38,-76.5C531.35,-76.5 548.39,-76.5 565.69,-76.5"/>
<polygon fill="#000000" stroke="#000000" points="565.9,-80 575.9,-76.5 565.9,-73 565.9,-80"/>
<text text-anchor="middle" x="545.5" y="-79.5" font-family="monospace" font-size="10.00">owns</text>
</g>
<!-- orcapod::store::filestore -->
<g id="node11" class="node">
<title>orcapod::store::filestore</title>
<polygon fill="#81c169" stroke="black" points="336,-0.5 336,-38.5 503,-38.5 503,-0.5 336,-0.5"/>
<text text-anchor="middle" x="419.5" y="-26.5" font-family="monospace" font-size="10.00">pub mod</text>
<polyline fill="none" stroke="black" points="336,-19.5 503,-19.5 "/>
<text text-anchor="middle" x="419.5" y="-7.5" font-family="monospace" font-size="10.00">orcapod::store::filestore</text>
</g>
<!-- orcapod::store&#45;&gt;orcapod::store::filestore -->
<g id="edge10" class="edge">
<title>orcapod::store&#45;&gt;orcapod::store::filestore</title>
<path fill="none" stroke="#000000" d="M242.1,-58.53C266.62,-53.1 297.04,-46.37 325.67,-40.04"/>
<polygon fill="#000000" stroke="#000000" points="326.7,-43.39 335.71,-37.82 325.19,-36.56 326.7,-43.39"/>
<text text-anchor="middle" x="293.5" y="-51.5" font-family="monospace" font-size="10.00">owns</text>
</g>
<!-- orcapod::store::filestore::LocalFileStore -->
<g id="node12" class="node">
<title>orcapod::store::filestore::LocalFileStore</title>
<polygon fill="#81c169" stroke="black" points="615,-0.5 615,-38.5 878,-38.5 878,-0.5 615,-0.5"/>
<text text-anchor="middle" x="746.5" y="-26.5" font-family="monospace" font-size="10.00">pub struct</text>
<polyline fill="none" stroke="black" points="615,-19.5 878,-19.5 "/>
<text text-anchor="middle" x="746.5" y="-7.5" font-family="monospace" font-size="10.00">orcapod::store::filestore::LocalFileStore</text>
</g>
<!-- orcapod::store::filestore&#45;&gt;orcapod::store::filestore::LocalFileStore -->
<g id="edge11" class="edge">
<title>orcapod::store::filestore&#45;&gt;orcapod::store::filestore::LocalFileStore</title>
<path fill="none" stroke="#000000" d="M503.35,-19.5C534.16,-19.5 570.05,-19.5 604.61,-19.5"/>
<polygon fill="#000000" stroke="#000000" points="604.8,-23 614.8,-19.5 604.8,-16 604.8,-23"/>
<text text-anchor="middle" x="545.5" y="-22.5" font-family="monospace" font-size="10.00">owns</text>
</g>
</g>
</svg>
