<?xml version="1.0" encoding="UTF-8" standalone="no"?>
<!DOCTYPE svg PUBLIC "-//W3C//DTD SVG 1.1//EN"
 "http://www.w3.org/Graphics/SVG/1.1/DTD/svg11.dtd">
<!-- Generated by graphviz version 2.43.0 (0)
 -->
<!-- Title: %3 Pages: 1 -->
<svg width="1287pt" height="259pt"
 viewBox="0.00 0.00 1286.60 258.60" xmlns="http://www.w3.org/2000/svg" xmlns:xlink="http://www.w3.org/1999/xlink">
<g id="graph0" class="graph" transform="scale(1 1) rotate(0) translate(28.8 229.8)">
<title>%3</title>
<polygon fill="white" stroke="transparent" points="-28.8,28.8 -28.8,-229.8 1257.8,-229.8 1257.8,28.8 -28.8,28.8"/>
<text text-anchor="middle" x="614.5" y="-168.2" font-family="Helvetica,sans-Serif" font-size="36.00">orcapod</text>
<!-- orcapod -->
<g id="node1" class="node">
<title>orcapod</title>
<polygon fill="#5397c8" stroke="black" points="0,-28.5 0,-66.5 59,-66.5 59,-28.5 0,-28.5"/>
<text text-anchor="middle" x="29.5" y="-54.5" font-family="monospace" font-size="10.00">crate</text>
<polyline fill="none" stroke="black" points="0,-47.5 59,-47.5 "/>
<text text-anchor="middle" x="29.5" y="-35.5" font-family="monospace" font-size="10.00">orcapod</text>
</g>
<!-- orcapod::uniffi -->
<g id="node2" class="node">
<title>orcapod::uniffi</title>
<polygon fill="#81c169" stroke="black" points="120,-28.5 120,-66.5 227,-66.5 227,-28.5 120,-28.5"/>
<text text-anchor="middle" x="173.5" y="-54.5" font-family="monospace" font-size="10.00">pub mod</text>
<polyline fill="none" stroke="black" points="120,-47.5 227,-47.5 "/>
<text text-anchor="middle" x="173.5" y="-35.5" font-family="monospace" font-size="10.00">orcapod::uniffi</text>
</g>
<!-- orcapod&#45;&gt;orcapod::uniffi -->
<g id="edge1" class="edge">
<title>orcapod&#45;&gt;orcapod::uniffi</title>
<path fill="none" stroke="#000000" d="M59.24,-47.5C73.8,-47.5 92.1,-47.5 109.71,-47.5"/>
<polygon fill="#000000" stroke="#000000" points="109.97,-51 119.97,-47.5 109.97,-44 109.97,-51"/>
<text text-anchor="middle" x="89.5" y="-50.5" font-family="monospace" font-size="10.00">owns</text>
</g>
<!-- orcapod::uniffi::orchestrator -->
<g id="node3" class="node">
<title>orcapod::uniffi::orchestrator</title>
<polygon fill="#81c169" stroke="black" points="288,-57.5 288,-95.5 479,-95.5 479,-57.5 288,-57.5"/>
<text text-anchor="middle" x="383.5" y="-83.5" font-family="monospace" font-size="10.00">pub mod</text>
<polyline fill="none" stroke="black" points="288,-76.5 479,-76.5 "/>
<text text-anchor="middle" x="383.5" y="-64.5" font-family="monospace" font-size="10.00">orcapod::uniffi::orchestrator</text>
</g>
<!-- orcapod::uniffi&#45;&gt;orcapod::uniffi::orchestrator -->
<g id="edge2" class="edge">
<title>orcapod::uniffi&#45;&gt;orcapod::uniffi::orchestrator</title>
<path fill="none" stroke="#000000" d="M227.26,-54.86C242.65,-57 260.04,-59.43 277.47,-61.86"/>
<polygon fill="#000000" stroke="#000000" points="277.33,-65.37 287.72,-63.29 278.3,-58.44 277.33,-65.37"/>
<text text-anchor="middle" x="257.5" y="-62.5" font-family="monospace" font-size="10.00">owns</text>
</g>
<!-- orcapod::uniffi::store -->
<g id="node7" class="node">
<title>orcapod::uniffi::store</title>
<polygon fill="#81c169" stroke="black" points="309,-0.5 309,-38.5 458,-38.5 458,-0.5 309,-0.5"/>
<text text-anchor="middle" x="383.5" y="-26.5" font-family="monospace" font-size="10.00">pub mod</text>
<polyline fill="none" stroke="black" points="309,-19.5 458,-19.5 "/>
<text text-anchor="middle" x="383.5" y="-7.5" font-family="monospace" font-size="10.00">orcapod::uniffi::store</text>
</g>
<!-- orcapod::uniffi&#45;&gt;orcapod::uniffi::store -->
<g id="edge3" class="edge">
<title>orcapod::uniffi&#45;&gt;orcapod::uniffi::store</title>
<path fill="none" stroke="#000000" d="M227.26,-40.4C249.05,-37.46 274.84,-33.99 299.08,-30.73"/>
<polygon fill="#000000" stroke="#000000" points="299.55,-34.2 308.99,-29.39 298.62,-27.26 299.55,-34.2"/>
<text text-anchor="middle" x="257.5" y="-40.5" font-family="monospace" font-size="10.00">owns</text>
</g>
<!-- orcapod::uniffi::orchestrator::PodRun -->
<g id="node4" class="node">
<title>orcapod::uniffi::orchestrator::PodRun</title>
<polygon fill="#81c169" stroke="black" points="540,-114.5 540,-152.5 779,-152.5 779,-114.5 540,-114.5"/>
<text text-anchor="middle" x="659.5" y="-140.5" font-family="monospace" font-size="10.00">pub struct</text>
<polyline fill="none" stroke="black" points="540,-133.5 779,-133.5 "/>
<text text-anchor="middle" x="659.5" y="-121.5" font-family="monospace" font-size="10.00">orcapod::uniffi::orchestrator::PodRun</text>
</g>
<!-- orcapod::uniffi::orchestrator&#45;&gt;orcapod::uniffi::orchestrator::PodRun -->
<g id="edge4" class="edge">
<title>orcapod::uniffi::orchestrator&#45;&gt;orcapod::uniffi::orchestrator::PodRun</title>
<path fill="none" stroke="#000000" d="M476.12,-95.56C502.05,-100.95 530.43,-106.86 556.92,-112.37"/>
<polygon fill="#000000" stroke="#000000" points="556.46,-115.85 566.97,-114.46 557.89,-109 556.46,-115.85"/>
<text text-anchor="middle" x="509.5" y="-107.5" font-family="monospace" font-size="10.00">owns</text>
</g>
<!-- orcapod::uniffi::orchestrator::docker -->
<g id="node5" class="node">
<title>orcapod::uniffi::orchestrator::docker</title>
<polygon fill="#81c169" stroke="black" points="540,-57.5 540,-95.5 779,-95.5 779,-57.5 540,-57.5"/>
<text text-anchor="middle" x="659.5" y="-83.5" font-family="monospace" font-size="10.00">pub mod</text>
<polyline fill="none" stroke="black" points="540,-76.5 779,-76.5 "/>
<text text-anchor="middle" x="659.5" y="-64.5" font-family="monospace" font-size="10.00">orcapod::uniffi::orchestrator::docker</text>
</g>
<!-- orcapod::uniffi::orchestrator&#45;&gt;orcapod::uniffi::orchestrator::docker -->
<g id="edge5" class="edge">
<title>orcapod::uniffi::orchestrator&#45;&gt;orcapod::uniffi::orchestrator::docker</title>
<path fill="none" stroke="#000000" d="M479.18,-76.5C495.32,-76.5 512.33,-76.5 529.18,-76.5"/>
<polygon fill="#000000" stroke="#000000" points="529.65,-80 539.65,-76.5 529.65,-73 529.65,-80"/>
<text text-anchor="middle" x="509.5" y="-79.5" font-family="monospace" font-size="10.00">owns</text>
</g>
<!-- orcapod::uniffi::orchestrator::docker::LocalDockerOrchestrator -->
<g id="node6" class="node">
<title>orcapod::uniffi::orchestrator::docker::LocalDockerOrchestrator</title>
<polygon fill="#81c169" stroke="black" points="840,-57.5 840,-95.5 1229,-95.5 1229,-57.5 840,-57.5"/>
<text text-anchor="middle" x="1034.5" y="-83.5" font-family="monospace" font-size="10.00">pub struct</text>
<polyline fill="none" stroke="black" points="840,-76.5 1229,-76.5 "/>
<text text-anchor="middle" x="1034.5" y="-64.5" font-family="monospace" font-size="10.00">orcapod::uniffi::orchestrator::docker::LocalDockerOrchestrator</text>
</g>
<!-- orcapod::uniffi::orchestrator::docker&#45;&gt;orcapod::uniffi::orchestrator::docker::LocalDockerOrchestrator -->
<g id="edge6" class="edge">
<title>orcapod::uniffi::orchestrator::docker&#45;&gt;orcapod::uniffi::orchestrator::docker::LocalDockerOrchestrator</title>
<path fill="none" stroke="#000000" d="M779.03,-76.5C795.26,-76.5 812.28,-76.5 829.51,-76.5"/>
<polygon fill="#000000" stroke="#000000" points="829.66,-80 839.66,-76.5 829.66,-73 829.66,-80"/>
<text text-anchor="middle" x="809.5" y="-79.5" font-family="monospace" font-size="10.00">owns</text>
</g>
<!-- orcapod::uniffi::store::filestore -->
<g id="node8" class="node">
<title>orcapod::uniffi::store::filestore</title>
<polygon fill="#81c169" stroke="black" points="552,-0.5 552,-38.5 767,-38.5 767,-0.5 552,-0.5"/>
<text text-anchor="middle" x="659.5" y="-26.5" font-family="monospace" font-size="10.00">pub mod</text>
<polyline fill="none" stroke="black" points="552,-19.5 767,-19.5 "/>
<text text-anchor="middle" x="659.5" y="-7.5" font-family="monospace" font-size="10.00">orcapod::uniffi::store::filestore</text>
</g>
<!-- orcapod::uniffi::store&#45;&gt;orcapod::uniffi::store::filestore -->
<g id="edge7" class="edge">
<title>orcapod::uniffi::store&#45;&gt;orcapod::uniffi::store::filestore</title>
<path fill="none" stroke="#000000" d="M458.29,-19.5C483.91,-19.5 513.31,-19.5 541.55,-19.5"/>
<polygon fill="#000000" stroke="#000000" points="541.89,-23 551.89,-19.5 541.89,-16 541.89,-23"/>
<text text-anchor="middle" x="509.5" y="-22.5" font-family="monospace" font-size="10.00">owns</text>
</g>
<!-- orcapod::uniffi::store::filestore::LocalFileStore -->
<g id="node9" class="node">
<title>orcapod::uniffi::store::filestore::LocalFileStore</title>
<polygon fill="#81c169" stroke="black" points="879,-0.5 879,-38.5 1190,-38.5 1190,-0.5 879,-0.5"/>
<text text-anchor="middle" x="1034.5" y="-26.5" font-family="monospace" font-size="10.00">pub struct</text>
<polyline fill="none" stroke="black" points="879,-19.5 1190,-19.5 "/>
<text text-anchor="middle" x="1034.5" y="-7.5" font-family="monospace" font-size="10.00">orcapod::uniffi::store::filestore::LocalFileStore</text>
</g>
<!-- orcapod::uniffi::store::filestore&#45;&gt;orcapod::uniffi::store::filestore::LocalFileStore -->
<g id="edge8" class="edge">
<title>orcapod::uniffi::store::filestore&#45;&gt;orcapod::uniffi::store::filestore::LocalFileStore</title>
<path fill="none" stroke="#000000" d="M767.39,-19.5C799.03,-19.5 834.44,-19.5 868.84,-19.5"/>
<polygon fill="#000000" stroke="#000000" points="868.99,-23 878.99,-19.5 868.99,-16 868.99,-23"/>
<text text-anchor="middle" x="809.5" y="-22.5" font-family="monospace" font-size="10.00">owns</text>
</g>
</g>
</svg>
